<svg xmlns="http://www.w3.org/2000/svg" xml:space="preserve" id="Layer_1" x="0" y="0" version="1.1" viewBox="0 0 397.8 369"><style>.st0{fill:#dd3d31}.st1{fill:#263238}.st2{fill:#fafafa}.st3{fill:#fff}.st4{fill:#455a64}.st5{fill:#fff;stroke:#fff;stroke-width:.5px;stroke-miterlimit:10}.st6{opacity:.3}.st7{fill:#e0e0e0}.st8{fill:#dd3d31;stroke:#dd3d31;stroke-width:.5px;stroke-miterlimit:10}.st9{fill:#ffbe9d}.st10{fill:#eb996e}</style><g id="freepik--Plant--inject-35"><path d="M374.5 285.7c2.9 1.3 5.1 3.8 6.1 6.8s1.3 6.2.9 9.3c-.6 6-4 12.1-7.6 17-5.1-4.4-6.4-12.1-6.8-16-.5-6.3 2.1-17.9 7.4-17.1M380 328.7c-.7-3.5.4-7.1 3.1-9.5 2.7-2.3 6.2-3.5 9.7-3.2 1.6.1 3.4.5 4.3 1.9.8 1.3.9 3 .1 4.3s-1.8 2.4-3.2 3.2c-4.3 2.8-9 4.7-14 3.3M371.5 332.2c-1.5-7.4-6.5-13.5-13.4-16.5-1.7-.7-4-1.2-5.3.1s-.9 3.6-.2 5.3c3.4 7.3 10.8 11.9 18.8 11.6" class="st0"/><path d="M373.1 347.6c0-.4.1-.8.2-1.3.1-.8.4-2 .7-3.4.8-3.7 2-7.4 3.7-10.8s4.4-6.3 7.6-8.4c1-.6 2-1.1 3.1-1.5.3-.1.6-.2.9-.2.1 0 .2-.1.3-.1-1.5.5-2.9 1.2-4.2 2-3.1 2.1-5.7 5-7.4 8.4s-3 7-3.8 10.7l-.8 3.4z" class="st1"/><path d="M373.3 294.8c0 .2.1.4.1.5 0 .4.1.9.1 1.5q.15 2.1.3 5.7c.2 4.8.4 11.5.5 18.9s0 14-.2 18.9c-.1 2.4-.1 4.4-.2 5.7 0 .6-.1 1.2-.1 1.5 0 .2 0 .4-.1.5v-2.1c0-1.4 0-3.3.1-5.7.1-4.8.1-11.5.1-18.9s-.2-14-.4-18.9c-.1-2.4-.1-4.3-.2-5.7v-1.9" class="st1"/><path d="M359.2 321.2c.4.1.8.3 1.1.5.4.2.9.4 1.3.7.5.3 1.1.6 1.6 1l.9.6c.3.2.6.5.9.8.6.5 1.3 1.1 1.9 1.8q2.1 2.25 3.6 4.8c1 1.7 1.8 3.6 2.4 5.5.3.8.5 1.7.7 2.5.1.4.2.8.2 1.2s.1.7.1 1.1c.1.7.1 1.3.1 1.9v1.4c0 .4 0 .8-.1 1.2-.1 0 .1-1.7-.3-4.5 0-.4-.1-.7-.2-1.1s-.2-.8-.2-1.1c-.1-.8-.4-1.6-.7-2.5-1.2-3.8-3.3-7.3-6-10.2-.6-.6-1.2-1.3-1.9-1.8-.3-.3-.6-.5-.9-.8l-.9-.7c-2-1.5-3.6-2.2-3.6-2.3" class="st1"/><path d="M383.4 369h-18.3l-3.8-26.9h25.6z" class="st1"/><path d="M385.3 354.5c0 .1-5 .3-11.1.3s-11.1-.1-11.1-.3 5-.3 11.1-.3 11.1.1 11.1.3M385.3 356.1c0 .1-5 .3-11.1.3s-11.1-.1-11.1-.3 5-.3 11.1-.3 11.1.1 11.1.3" class="st2"/></g><g id="freepik--Files--inject-35"><path d="m328.6 368.9-140.1.1c-1.2 0-2.1-.9-2.1-2.1v-84.6c0-1.2 1-2.1 2.1-2.1l140.1-.1c1.2 0 2.1 1 2.1 2.1v84.6c0 1.1-.9 2.1-2.1 2.1" class="st1"/><path d="m260 315.6 11.9 6.3-11.4 7.5-11.4 7.5-.4-13.8-.5-13.9zM320.3 360c0 .1-27.6.3-61.8.3s-61.8-.1-61.8-.2 27.6-.3 61.8-.3 61.8.1 61.8.2" class="st3"/><path d="M199 360.1c0 .9-.7 1.6-1.6 1.6s-1.6-.7-1.6-1.6.7-1.6 1.6-1.6 1.6.7 1.6 1.6" class="st3"/><path d="m306.7 368.7-148.7.1c-1.2 0-2.1-1-2.1-2.1v-89.9c0-1.2 1-2.1 2.1-2.1l148.8-.1c1.2 0 2.1 1 2.1 2.1v90c-.1 1.1-1 2-2.2 2" class="st4"/><path d="M297.8 359.3c0 .1-29.3.3-65.5.3s-65.5-.1-65.5-.2 29.3-.3 65.5-.3 65.5 0 65.5.2" class="st3"/><path d="M169.1 359.3c0 .9-.7 1.6-1.6 1.6s-1.7-.7-1.7-1.6.7-1.6 1.6-1.6c1 0 1.7.7 1.7 1.6" class="st3"/><path d="M235.2 322.7c.1-.2.3-.4.4-.5l1.3-1.3c1.1-1.1 2.7-2.6 4.4-4.2v.2c-1.8-1.6-3.3-3.1-4.4-4.2l-1.3-1.3c-.2-.1-.3-.3-.5-.5.2.1.4.3.5.4l1.4 1.2c1.2 1 2.7 2.5 4.5 4.1l.1.1-.1.1c-1.8 1.6-3.3 3.1-4.5 4.2l-1.4 1.2c0 .2-.2.4-.4.5zM221.8 310.9c-.1.2-.3.4-.4.5l-1.3 1.3c-1.1 1.1-2.7 2.6-4.4 4.2v-.2c1.8 1.6 3.3 3.1 4.4 4.2l1.3 1.3c.2.1.3.3.5.5-.2-.1-.4-.3-.5-.4-.4-.3-.8-.7-1.4-1.2-1.2-1-2.7-2.5-4.5-4.1l-.1-.1.1-.1c1.8-1.6 3.3-3.1 4.5-4.2l1.4-1.2c0-.3.2-.4.4-.5zM225.2 325.5c-.1 0 1.3-4 3.2-8.8 1.8-4.8 3.4-8.8 3.4-8.7.1 0-1.3 4-3.2 8.8s-3.3 8.7-3.4 8.7z" class="st5"/><path d="M166.1 314.9h83.5c1.2 0 2.1 1 2.1 2.1v49.8c0 1.2-1 2.1-2.1 2.1h-83.5c-1.2 0-2.1-1-2.1-2.1V317c0-1.1.9-2.1 2.1-2.1" class="st0"/><path d="M245.4 363.6c0 .1-16.8.3-37.6.3s-37.6-.1-37.6-.2 16.8-.3 37.6-.3 37.6 0 37.6.2" class="st3"/><path d="M171.6 363.6c0 .5-.4.9-1 .9-.5 0-.9-.4-.9-1 0-.5.4-.9 1-.9.5 0 .9.5.9 1" class="st3"/></g><g id="freepik--Screen--inject-35"><path d="M0 1.3h393.2v250.5H0z" class="st3"/><path d="M393.5 250.8c0-1.9-.1-96.8-.2-250.5l.2.2L.3.6.6.3v250.5l-.3-.3zl-393.2.3H0V0h.3l393.2.1h.2v.2c-.1 153.7-.2 248.6-.2 250.5" class="st1"/><path d="M393.7 15.3c0 .2-88.1.3-196.8.3S0 15.5 0 15.3s88.1-.3 196.9-.3 196.8.2 196.8.3M13 6c0 1.4-1.1 2.5-2.5 2.5S7.9 7.5 7.9 6 9 3.5 10.4 3.5 13 4.6 13 6M20.8 6c0 1.4-1.1 2.5-2.5 2.5s-2.6-1-2.6-2.5 1.1-2.5 2.5-2.5 2.6 1.1 2.6 2.5M28.5 6c0 1.4-1.1 2.5-2.5 2.5s-2.5-1-2.5-2.5 1.1-2.5 2.5-2.5 2.5 1.1 2.5 2.5" class="st1"/><path d="M26.4 150.3h81.1v78.5H26.4z" class="st0"/><path d="m32.7 222 22.4-40.3 18.3 25.8 11.2-13.7 16.6 28.2zM81.3 173.8c0 3.2-2.6 5.8-5.8 5.9-3.2 0-5.8-2.6-5.9-5.8 0-3.2 2.6-5.8 5.8-5.9 3.2 0 5.9 2.6 5.9 5.8" class="st6"/><path d="M101.2 222.3v-4.7c0-3.1 0-7.6-.1-13.3 0-11.5-.1-27.8-.2-47.4l.3.3-68.5.1.4-.4v65.4l-.3-.3 49.5.2 14 .1h5-4.8l-13.9.1-49.7.2h-.3V157l.4-.4h68.8v.3c-.1 19.7-.1 36.1-.2 47.6 0 5.7-.1 10.2-.1 13.2v4.4c-.1 0-.2.1-.3.2" class="st6"/><path d="M118.7 165.2h54.9v2.8h-54.9z" class="st0"/><path d="M192.7 177.1c0 .2-16.5.3-36.8.3s-36.8-.1-36.8-.3 16.5-.3 36.8-.3 36.8.1 36.8.3M192.7 184.8c0 .2-16.5.3-36.8.3s-36.9-.2-36.9-.3 16.5-.3 36.8-.3 36.9.1 36.9.3M192.7 192.5c0 .2-16.5.3-36.8.3s-36.8-.1-36.8-.3 16.5-.3 36.8-.3 36.8.1 36.8.3M192.7 200.2c0 .1-16.5.3-36.8.3s-36.8-.1-36.8-.3 16.5-.3 36.8-.3 36.8.1 36.8.3M192.7 207.9c0 .1-16.5.3-36.8.3s-36.9-.2-36.9-.3 16.5-.3 36.8-.3 36.9.1 36.9.3M156.9 214.9c0 .1-8.5.3-18.9.3s-18.9-.1-18.9-.3 8.5-.3 18.9-.3 18.9.2 18.9.3" class="st1"/><path d="M296 160.6h54.9v2.8H296z" class="st0"/><path d="M370 172.4c0 .2-16.5.3-36.8.3s-36.8-.1-36.8-.3 16.5-.3 36.8-.3 36.8.2 36.8.3M370 180.1c0 .2-16.5.3-36.8.3s-36.8-.1-36.8-.3 16.5-.3 36.8-.3 36.8.2 36.8.3M370 187.8c0 .1-16.5.3-36.8.3s-36.8-.1-36.8-.3 16.5-.3 36.8-.3 36.8.2 36.8.3M370 195.5c0 .1-16.5.3-36.8.3s-36.8-.1-36.8-.3 16.5-.3 36.8-.3 36.8.2 36.8.3M370 203.2c0 .2-16.5.3-36.8.3s-36.8-.1-36.8-.3 16.5-.3 36.8-.3 36.8.2 36.8.3M334.2 210.3c0 .1-8.5.3-18.9.3s-18.9-.1-18.9-.3 8.5-.3 18.9-.3 18.9.1 18.9.3M284.7 231.4q1.35-.45 2.7-.3l-.3.3v-1c0-.3 0-.6.1-.9 0-.5.1-.8.2-.8s.1.3.2.8c0 .3 0 .5.1.9v1l-.3.3q-1.35.15-2.7-.3M273 231.4c1.9-.4 3.9-.4 5.8 0-1.9.4-3.9.4-5.8 0M261.4 231.4c1.9-.4 3.9-.4 5.8 0-1.9.4-3.9.4-5.8 0M249.8 231.4c1.9-.4 3.9-.4 5.8 0-1.9.4-3.9.4-5.8 0M238.1 231.4c1.9-.4 3.9-.4 5.8 0-1.9.4-3.8.4-5.8 0M226.5 231.4c1.9-.4 3.9-.4 5.8 0-1.9.4-3.9.4-5.8 0M214.8 231.4c1.9-.4 3.9-.4 5.8 0-1.9.4-3.8.4-5.8 0M206.3 228.7q.45 1.35.3 2.7l-.3-.3h1.1l.9.1c.5.1.8.1.8.2s-.3.1-.8.2l-.9.1h-1.1l-.3-.3q-.15-1.35.3-2.7M206.3 217.5c.4 1.9.4 3.8 0 5.6-.4-1.9-.4-3.8 0-5.6M206.3 206.2c.4 1.9.4 3.8 0 5.6-.4-1.8-.4-3.7 0-5.6M206.3 195c.4 1.9.4 3.8 0 5.6-.3-.9-.4-1.9-.3-2.8-.1-.9 0-1.9.3-2.8M206.3 183.8c.4 1.9.4 3.8 0 5.6-.4-1.9-.4-3.8 0-5.6M206.3 172.5c.4 1.9.4 3.8 0 5.6-.3-.9-.4-1.9-.3-2.8-.1-.9 0-1.9.3-2.8M206.3 161.3c.4 1.9.4 3.8 0 5.6-.4-1.8-.4-3.8 0-5.6M209 153q-1.35.45-2.7.3l.3-.3v1c0 .3 0 .6-.1.9 0 .5-.1.8-.2.8s-.1-.3-.2-.8c0-.2 0-.5-.1-.9s0-.4 0-.5v-.5l.3-.3q1.35-.15 2.7.3M220.7 153c-1.9.4-3.9.4-5.8 0 1.9-.4 3.8-.4 5.8 0M232.3 153c-1.9.4-3.9.4-5.8 0 1.9-.4 3.9-.4 5.8 0M243.9 153c-1.9.4-3.9.4-5.8 0 2-.4 3.9-.4 5.8 0M255.6 153c-1.9.4-3.9.4-5.8 0 1.9-.4 3.9-.4 5.8 0M267.2 153c-1.9.4-3.9.4-5.8 0 1.9-.4 3.9-.4 5.8 0M278.9 153c-1.9.4-3.9.4-5.8 0 1.9-.4 3.8-.4 5.8 0M287.4 155.7q-.45-1.35-.3-2.7l.3.3h-1c-.3 0-.6 0-.9-.1-.5 0-.8-.1-.8-.2s.3-.1.8-.2c.3 0 .5 0 .9-.1h1l.3.3q.15 1.35-.3 2.7M287.4 166.9c-.4-1.9-.4-3.8 0-5.6.4 1.8.4 3.7 0 5.6M287.4 178.1c-.4-1.9-.4-3.8 0-5.6.3.9.4 1.9.3 2.8.1 1 0 1.9-.3 2.8M287.4 189.4c-.4-1.9-.4-3.8 0-5.6.4 1.8.4 3.7 0 5.6M287.4 200.6c-.4-1.9-.4-3.8 0-5.6.3.9.4 1.9.3 2.8.1.9 0 1.9-.3 2.8M287.4 211.9c-.4-1.9-.4-3.8 0-5.6.4 1.8.4 3.7 0 5.6M287.4 223.1c-.4-1.9-.4-3.8 0-5.6.4 1.8.4 3.7 0 5.6" class="st1"/><path d="M262.5 78.3v-8.6c0-5.4-.1-13.3-.1-22.8l.2.2-50.9.1c-.1.1.5-.5.2-.3v31.3l-.2-.2 36.6.1 10.5.1h3.5c.1 0 .2 0 .2.1l-.9-.1h-2.8l-10.5.1-36.8.1h-.2V47l.3-.3 50.9.1h.2v.2c0 9.6-.1 17.5-.1 22.9v7.8c0 .4-.1.6-.1.6" class="st0"/><path d="M258.8 75.1c0 .1-9.8.3-21.8.3s-21.8-.1-21.8-.3 9.8-.2 21.8-.2 21.8.1 21.8.2" class="st0"/><circle cx="215.5" cy="75.1" r=".5" class="st0"/><path d="M274 50.6h54.9v2.8H274z" class="st0"/><path d="M347.9 62.4c0 .1-16.5.3-36.8.3s-36.8-.1-36.8-.3 16.5-.3 36.8-.3 36.8.1 36.8.3M347.9 70.1c0 .2-16.5.3-36.8.3s-36.8-.1-36.8-.3 16.5-.3 36.8-.3 36.8.1 36.8.3" class="st1"/><path d="M262.5 124.3v-8.6c0-5.4-.1-13.3-.1-22.8l.2.2-50.9.1c-.1 0 .5-.5.2-.3v31.3l-.2-.2 36.6.1 10.5.1h3.5zh-3.7l-10.5.1-36.8.1h-.2V93l.3-.3 50.9.1h.2v.2c0 9.6-.1 17.5-.1 22.9v7.9c0 .1 0 .3-.1.5" class="st0"/><path d="M258.8 121.2c0 .1-9.8.3-21.8.3s-21.8-.1-21.8-.3 9.8-.3 21.8-.3 21.8.2 21.8.3" class="st0"/><circle cx="215.5" cy="121.2" r=".5" class="st0"/><path d="M274 96.6h54.9v2.8H274z" class="st0"/><path d="M347.9 108.5c0 .2-16.5.3-36.8.3s-36.8-.1-36.8-.3 16.5-.3 36.8-.3 36.8.1 36.8.3M347.9 116.2c0 .2-16.5.3-36.8.3s-36.8-.1-36.8-.3 16.5-.3 36.8-.3 36.8.1 36.8.3" class="st1"/><path d="M184.8 135.4c.8-.3 1.7-.3 2.5-.3l-.3.3v-1c0-.3 0-.6.1-.8 0-.4.1-.7.2-.7s.1.3.2.7c0 .2 0 .5.1.8v1l-.3.3c-.9.1-1.7 0-2.5-.3M174.8 135.4c1.6-.3 3.4-.3 5 0-1.6.3-3.4.3-5 0M164.8 135.4c1.6-.3 3.4-.3 5 0-1.6.3-3.3.3-5 0M154.8 135.4c1.6-.3 3.4-.3 5 0-1.6.3-3.3.3-5 0M144.9 135.4c.8-.3 1.7-.3 2.5-.3.8-.1 1.7 0 2.5.3-.8.3-1.7.3-2.5.3-.9 0-1.7-.1-2.5-.3M134.9 135.4c1.6-.3 3.4-.3 5 0-1.6.3-3.4.3-5 0M124.9 135.4c1.6-.3 3.4-.3 5 0-1.6.3-3.3.3-5 0M114.9 135.4c.8-.3 1.7-.3 2.5-.3.8-.1 1.7 0 2.5.3-.8.3-1.7.3-2.5.3s-1.6-.1-2.5-.3M105 135.4c1.6-.3 3.4-.3 5 0-1.6.3-3.3.3-5 0M95 135.4c1.6-.3 3.4-.3 5 0-1.6.3-3.3.3-5 0M85 135.4c1.6-.3 3.4-.3 5 0-1.6.3-3.3.3-5 0M75.1 135.4c1.6-.3 3.4-.3 5 0-1.7.3-3.4.3-5 0M65.1 135.4c1.6-.3 3.4-.3 5 0-1.7.3-3.4.3-5 0M55.1 135.4c.8-.3 1.7-.3 2.5-.3.8-.1 1.7 0 2.5.3-.8.3-1.7.3-2.5.3s-1.7-.1-2.5-.3M45.1 135.4c.8-.3 1.7-.3 2.5-.3.8-.1 1.7 0 2.5.3-.8.3-1.7.3-2.5.3s-1.7-.1-2.5-.3M35.2 135.4c.8-.3 1.7-.3 2.5-.3.8-.1 1.7 0 2.5.3-.8.3-1.7.3-2.5.3-.9 0-1.7-.1-2.5-.3M27.7 132.9c.3.8.3 1.7.3 2.5l-.3-.3h1c.3 0 .6 0 .8.1.4 0 .7.1.7.2s-.3.1-.7.2l-.8.1h-1l-.3-.3c0-.9 0-1.7.3-2.5M27.7 123.1c.3 1.6.3 3.3 0 4.9-.4-1.6-.4-3.3 0-4.9M27.7 113.2c.3 1.6.3 3.3 0 4.9-.4-1.6-.4-3.2 0-4.9M27.7 103.4c.3 1.6.3 3.3 0 4.9-.4-1.6-.4-3.3 0-4.9M27.7 93.6c.3 1.6.3 3.3 0 4.9-.4-1.6-.4-3.3 0-4.9M27.7 83.8c.3 1.6.3 3.3 0 4.9-.4-1.6-.4-3.3 0-4.9M27.7 74c.3 1.6.3 3.3 0 4.9-.4-1.6-.4-3.3 0-4.9M27.7 64.2c.3 1.6.3 3.3 0 4.9-.4-1.6-.4-3.3 0-4.9M27.7 54.3c.3 1.6.3 3.3 0 4.9-.4-1.6-.4-3.2 0-4.9M27.7 44.5c.3 1.6.3 3.3 0 4.9-.4-1.6-.4-3.3 0-4.9M30.2 37.1c-.8.3-1.7.4-2.5.3l.3-.3v1c0 .2 0 .6-.1.8 0 .4-.1.7-.2.7s-.1-.3-.2-.7c0-.2 0-.5-.1-.8v-1c.1-.1-.3.2.3-.3.8-.1 1.7 0 2.5.3M40.1 37.1c-.8.3-1.7.4-2.5.3-.8.1-1.7 0-2.5-.3.8-.3 1.7-.3 2.5-.3.9 0 1.7.1 2.5.3M50.1 37.1c-.8.3-1.7.4-2.5.3-.8.1-1.7 0-2.5-.3.8-.3 1.7-.3 2.5-.3.9 0 1.7.1 2.5.3M60.1 37.1c-.8.3-1.7.4-2.5.3-.8.1-1.7 0-2.5-.3.8-.3 1.7-.3 2.5-.3s1.7.1 2.5.3M70.1 37.1c-1.6.4-3.4.4-5 0 1.6-.3 3.3-.3 5 0M80 37.1c-1.6.4-3.4.4-5 0 1.7-.3 3.4-.3 5 0M90 37.1c-1.6.4-3.4.4-5 0 1.7-.3 3.4-.3 5 0M100 37.1c-1.6.4-3.4.4-5 0 1.7-.3 3.4-.3 5 0M110 37.1c-1.6.4-3.4.4-5 0 1.7-.3 3.4-.3 5 0M119.9 37.1c-.8.3-1.7.4-2.5.3-.8.1-1.7 0-2.5-.3.8-.3 1.7-.3 2.5-.3.9 0 1.7.1 2.5.3M129.9 37.1c-1.6.4-3.4.4-5 0 1.7-.3 3.4-.3 5 0M139.9 37.1c-1.6.4-3.4.4-5 0 1.6-.3 3.3-.3 5 0M149.9 37.1c-.8.3-1.7.4-2.5.3-.8.1-1.7 0-2.5-.3.8-.3 1.7-.3 2.5-.3s1.7.1 2.5.3M159.8 37.1c-1.6.4-3.4.4-5 0 1.7-.3 3.4-.3 5 0M169.8 37.1c-1.6.4-3.4.4-5 0 1.7-.3 3.4-.3 5 0M179.8 37.1c-1.6.4-3.4.4-5 0 1.6-.3 3.3-.3 5 0M187.3 39.6c-.3-.8-.3-1.7-.3-2.5l.3.3h-1.8c-.4-.1-.7-.1-.7-.2s.3-.1.7-.2l.8-.1h1l.3.3q0 1.2-.3 2.4M187.3 49.4c-.3-1.6-.3-3.3 0-4.9.3 1.6.3 3.3 0 4.9M187.3 59.2c-.3-1.6-.3-3.3 0-4.9.3 1.7.3 3.3 0 4.9M187.3 69.1c-.3-1.6-.3-3.3 0-4.9.3 1.6.3 3.3 0 4.9M187.3 78.9c-.3-1.6-.3-3.3 0-4.9.3 1.6.3 3.3 0 4.9M187.3 88.7c-.3-1.6-.3-3.3 0-4.9.3 1.6.3 3.3 0 4.9M187.3 98.5c-.3-1.6-.3-3.3 0-4.9.3 1.6.3 3.3 0 4.9M187.3 108.3c-.3-1.6-.3-3.3 0-4.9.3 1.6.3 3.3 0 4.9M187.3 118.2c-.3-.8-.3-1.6-.3-2.5-.1-.8 0-1.7.3-2.4.3.8.3 1.6.3 2.4s-.1 1.7-.3 2.5M187.3 128c-.3-1.6-.3-3.3 0-4.9.3 1.6.3 3.3 0 4.9" class="st7"/><path d="m241.5 65.9.3-.3.8-.8c.7-.7 1.7-1.7 2.8-2.7v.1c-1.1-1-2.1-2-2.8-2.7l-.8-.8-.3-.3.3.3.9.8c.7.7 1.8 1.6 2.9 2.6l.1.1-.1.1c-1.1 1.1-2.1 2-2.9 2.7l-.9.8s-.1.1-.3.1zM232.9 58.4l-.3.3-.8.8c-.7.7-1.7 1.7-2.8 2.7v-.1c1.1 1 2.1 2 2.8 2.7l.8.8.3.3-.3-.3c-.2-.2-.5-.5-.9-.8-.7-.7-1.8-1.6-2.9-2.6l-.1-.1.1-.1c1.1-1.1 2.1-2 2.9-2.7l.9-.8c.1 0 .2-.1.3-.1zM235.1 67.7s.9-2.6 2-5.7c1.2-3.1 2.2-5.6 2.2-5.6.1 0-.9 2.6-2 5.7s-2.1 5.7-2.2 5.6zM241.5 112.1l.3-.3.8-.8c.7-.7 1.7-1.7 2.8-2.7v.1c-1.1-1-2.1-2-2.8-2.7l-.8-.8-.3-.3.3.3.9.8c.7.7 1.8 1.6 2.9 2.6l.1.1-.1.1c-1.1 1.1-2.1 2-2.9 2.7l-.9.8c0-.1-.1 0-.3.1zM232.9 104.5l-.3.3-.8.8c-.7.7-1.7 1.7-2.8 2.7v-.1c1.1 1 2.1 2 2.8 2.7l.8.8.3.3-.3-.3c-.2-.2-.5-.5-.9-.8-.7-.7-1.8-1.6-2.9-2.6l-.1-.1.1-.1c1.1-1.1 2.1-2 2.9-2.7l.9-.8c.1.1.2 0 .3-.1zM235.1 113.9s.9-2.6 2-5.7c1.2-3.1 2.2-5.6 2.2-5.6.1 0-.9 2.6-2 5.7-1.2 3.1-2.1 5.6-2.2 5.6z" class="st8"/></g><g id="freepik--Character--inject-35"><path d="m175.8 134.6-155.1 8.5c-1.2.1-2.2-.8-2.2-2l-5.1-93.9c-.1-1.2.8-2.2 2-2.2l155.1-8.5c1.2-.1 2.2.8 2.2 2l5.1 93.9c0 1.1-.9 2.1-2 2.2" class="st0"/><path d="M165.8 125.3c0 .1-30.5 1.9-68.2 4s-68.2 3.6-68.2 3.5 30.5-1.9 68.2-4 68.2-3.6 68.2-3.5" class="st3"/><path d="M31.9 132.7c0 .9-.7 1.8-1.6 1.8s-1.8-.7-1.8-1.6.7-1.8 1.6-1.8c.9-.1 1.7.6 1.8 1.6" class="st3"/><path d="M162.1 37.1c-2.5 4.8-5 10.2-3.3 15.3.8 2.3 2.4 4.3 3.6 6.4 3.7 6.6 3.6 14.5 3.4 22.1-.1 2.1-.2 4.5-1.9 5.9-1.3 1.1-3.2 1.3-5 1.3l-21.1.9v37.1l39.1-8.7-1.8-55.5-1-9.4-3.9-16z" class="st6"/><path d="m128.5 337.5 1.4 31.3 16.9-.4-1.3-31.4z" class="st0"/><path d="M138.2 367.4c.1 0-.1-6.9-.6-15.3s-1-15.3-1.1-15.3.1 6.9.6 15.3.9 15.4 1.1 15.3" class="st1"/><path d="m129.8 366.7 16.9-.5.1 2.2-16.9.4z" class="st7"/><path d="M146.4 358.4s-.1-.3-.5-.7c-1.2-1.4-2.7-2.5-4.4-3.2-1.3-.5-2.6-.8-4-.7-2.5.1-4.8 1.3-6.5 3.2-.5.6-.9 1.2-1.1 1.9-.1.2-.2.5-.2.8.5-.9 1-1.7 1.7-2.4 1.6-1.7 3.8-2.8 6.2-2.9 2.4 0 4.7.7 6.6 2.2 1.4 1 2.1 1.9 2.2 1.8" class="st1"/><path d="m145.9 346 .1 3.4-16.9.3-.2-2.6z" class="st6"/><path d="m87.6 338.3.9 19.6s-19.6 7.5-19.9 11.1l38.1-.3-.1-30.6z" class="st0"/><path d="M100 356.2c.8.2 1.2 1 1.1 1.8-.2.8-1 1.3-1.8 1.1s-1.3-1.1-1.1-1.9c.3-.8 1.2-1.2 1.9-.9M106.7 368.7v-3.1L69.8 367s-1.7.8-1.5 2z" class="st7"/><path d="M88.1 358c0 .2 1 .3 1.9.9s1.4 1.4 1.6 1.3-.1-1.2-1.2-1.9-2.3-.4-2.3-.3M84.1 359.7c0 .2.8.5 1.4 1.3s.8 1.6 1 1.6.3-1.1-.5-2-1.9-1.1-1.9-.9M81.8 364.6c.2 0 .4-.9-.1-1.9s-1.4-1.4-1.4-1.3.5.7.9 1.5.5 1.6.6 1.7M88.4 353.5c.1.2.9-.1 2 0s1.9.4 2 .2-.7-.8-1.9-.9-2.2.6-2.1.7M87.7 349.3c.6.2 1.3.2 1.9 0 .7-.1 1.4-.3 2-.6.4-.2.7-.4 1.1-.6.2-.1.4-.3.6-.5.3-.3.3-.7.1-1s-.5-.4-.8-.4c-.2 0-.5 0-.7.1-.4.1-.8.2-1.2.4q-.9.45-1.8 1.2c-.9.8-1.2 1.5-1.1 1.6s.5-.5 1.4-1.2c.5-.4 1.1-.7 1.7-1 .4-.1.7-.3 1.1-.3.4-.1.8-.1.9.1s0 .1 0 .2c-.1.1-.3.2-.4.3-.3.2-.7.4-1 .6-.6.3-1.2.5-1.9.7-.7 0-1.3.2-1.9.4" class="st1"/><path d="M87.9 349.6c.4-.6.5-1.2.5-1.9q0-1.05-.3-2.1c-.1-.4-.3-.8-.5-1.2-.2-.5-.7-.9-1.2-1-.3 0-.7.2-.8.5-.1.2-.2.5-.2.7-.1.4-.1.9 0 1.3.1.7.4 1.4.8 2 .8 1 1.5 1.2 1.6 1.1s-.6-.5-1.2-1.4c-.4-.5-.6-1.2-.7-1.8v-1.1c.1-.4.2-.7.4-.7s.5.3.7.6.4.7.5 1c.2.6.4 1.3.4 1.9.1 1.3-.1 2 0 2.1" class="st1"/><path d="M106.7 349.9v4.3H88.3v-2.4z" class="st6"/><path d="M163.7 40.1c-.4 0-1.5 4.3-2.1 6.5q-.3 1.2.3 2.4l4.4 7.8c.8 1.4 2 2.6 3.5 3.5l2.2 1.2.3 4.6 12.4.2-3.8-14.5-1.6-8.8c-.4-.9-1.3-1.5-2.2-1.6l-1.2-.2-.4-1.1c-.3-.6-.8-1.1-1.5-1.2l-.7-.1-1-2.5c-.3-.8-1.1-1.3-2-1.4l-6 .1s-1.3 1.8 1.7 2.6c.8.2 1.7.3 2.6.3l1.4 5.4s1 5.7-1.7 5.7c-2.3 0-2.6-3.1-2.6-3.1s1.1-6.1-2-5.8" class="st9"/><path d="M176 45.6c-.1-.4-.1-.8-.2-1.1-.3-.9-.9-1.6-1.7-2.1q-.6-1.35-.9-2.7c-.1-.4-.2-.8-.1-1.2 0 0 .1.4.3 1.1.2.9.6 1.8.9 2.6l.6.5c.2.2.4.4.5.6.3.4.4.7.6 1.2.1.3.1.6.1.9-.1-.1-.1.1-.1.2M177.9 44.5c0-.2-.1-.4-.2-.6-.2-.4-.7-.7-1.1-.8h-.1V43l-.1-.2c-.3-.7-.5-1.5-.7-2.2.4.7.7 1.4.9 2.2l.1.2-.1-.1c.6.1 1 .4 1.3.9.1.5 0 .7 0 .7M168.4 38c-.1 0-.3-.3-.2-.7s.3-.7.3-.6-.1.3-.1.7.1.5 0 .6" class="st10"/><path d="M103.7 96.1c.2-.3.4-.5.6-.7.5-.5 1.1-1.1 1.8-1.9 1.5-1.6 3.7-3.8 6-6.1l.1-.1v.3c-2.5-2.2-4.8-4.2-6.4-5.7l-1.9-1.8c-.2-.2-.5-.4-.7-.7.3.2.5.3.8.6l2 1.7c1.7 1.4 4 3.4 6.5 5.6l.2.2-.2.2-.1.1c-2.4 2.4-4.5 4.5-6.1 6l-1.9 1.8c-.2.1-.4.3-.7.5zM84.3 80c-.2.3-.4.5-.6.7l-1.8 1.9c-1.5 1.6-3.6 3.8-6 6.1l-.1.1v-.3c2.5 2.2 4.8 4.2 6.4 5.7l1.9 1.8c.2.2.5.4.7.7-.3-.2-.5-.3-.8-.6-.5-.4-1.2-1-2-1.7-1.7-1.4-4-3.4-6.5-5.6l-.2-.2.2-.2.1-.1c2.4-2.4 4.5-4.5 6.1-6l1.9-1.8c.2-.1.5-.3.7-.5zM89.8 100.4c-.1 0 1.7-5.7 4.1-12.5 2.4-6.9 4.4-12.4 4.5-12.4s-1.7 5.7-4.1 12.5c-2.4 6.9-4.4 12.4-4.5 12.4z" class="st5"/><path d="m104.9 94.2 22.5-.3-2.5-19.2s1.5-.3 1.6-8.7.5-22.5.5-22.5c-9.7-4.1-20.8-2.7-29.1 3.7l-1.2 1z" class="st9"/><path d="M99.2 58.5c-.1-.1-5.7-1.7-5.6 4s5.9 4.3 5.9 4.2-.3-8.2-.3-8.2M126 57.3c.1-.1 5.2-1.4 5 4.3s-5.9 4.3-5.9 4.2.9-8.5.9-8.5" class="st9"/><path d="M132.4 40.8c.1-1.1-.3-2.1-1.1-2.8-.9-.6-2.1-.5-2.8.2.3-1.4-.6-2.7-1.9-3h-.3c-1.4-.1-2.5.9-3.8 1.3-1.3.3-2.7.1-3.9-.4s-2.4-1.2-3.6-1.6c-5.5-2-11.6.8-13.6 6.3-1.9-.5-3.9.3-5 1.9s-1.5 3.6-1.2 5.5c.2 1.3.5 2.5 1 3.7v.3c.1 4.6 2.5 19.1 4.4 19.1 3.4.1.7-15.5.7-15.5 4.2-1.6 2.6-7.9 3.7-8.8s3.2-3.2 12 1.3c3.3 1.5 6.9 1.8 10.4 1.1h.4c.8-.2 1.5-.6 2.2-1 .8-.5 1.5-1.2 1.9-2.1s.2-1.9-.5-2.6c.5-.8.9-1.8 1-2.9" class="st1"/><path d="M97.4 57.9c.9 4.8.7 7.3 1.5 10.5 1.2 5 3.8 8.9 8.3 11.4s10.7 2.5 14.6-1c2.7-2.4 4.6-5.1 5-8.7s.8-9.9.8-13.5c0-6.5.5-12.7.5-12.7l-18.6-3.4-10.6 6.3zM116.6 82.6c-1 .4-2.2.5-3.3.3-1.1 0-2.2-.4-3.1-1 .1-.1 1.4.3 3.2.5s3.2.1 3.2.2" class="st1"/><path d="M121.4 39.7c-.3.1-.6.2-.9.2q-1.2 0-2.4-.6c-1.1-.6-2.1-1.2-3-2-1.1-.9-2.5-1.6-3.9-1.8-1.5-.2-2.9.1-4.2.7-1.1.6-1.9 1.4-2.6 2.4-.6.9-1 2-1.1 3.1 0-.3 0-.6.1-.9.2-.8.5-1.6.9-2.3.6-1.1 1.5-1.9 2.6-2.5 1.3-.7 2.9-1 4.4-.8s2.9.9 4 1.9c.9.8 1.9 1.4 3 2 .7.4 1.5.6 2.3.6.5.1.8-.1.8 0" class="st4"/><path d="M103.5 42c-.4-.2-.9-.4-1.3-.5-1.1-.3-2.3-.1-3.3.5s-1.7 1.6-1.9 2.7c-.1.5-.1.9-.1 1.4 0-.1-.1-.3-.1-.4 0-.4 0-.7.1-1.1.4-2.3 2.7-3.9 5-3.4.1 0 .3.1.4.1.4.1.7.2 1 .4.1.1.2.2.2.3M103 62.3c-1.2-1.8-2.1-3.9-2.6-6 1.2 1.9 2.1 3.9 2.6 6M107.9 65.6c-1.1-.6-2-1.5-2.6-2.6-.8-1-1.2-2.2-1.4-3.5.1 0 .7 1.5 1.8 3.2s2.3 2.8 2.2 2.9M112.7 66.7c-.8-.3-1.6-.7-2.2-1.4-1.1-1-1.8-1.9-1.7-2s.9.7 2 1.6 2 1.6 1.9 1.8M121.2 58.9c.1 1 0 2-.5 2.8-.3.9-.9 1.8-1.6 2.4.3-.9.7-1.7 1.2-2.6.2-.8.5-1.7.9-2.6M124 54.4c.2 1.2.1 2.4-.3 3.5-.3 1.2-.8 2.2-1.7 3.1-.1-.1.7-1.4 1.2-3.2s.7-3.4.8-3.4M126.3 42.9c-.2.2-.5.4-.7.6-.7.4-1.6.7-2.4.8-1.3.1-2.6-.1-3.8-.6q-2.1-.9-4.2-2.1-1.95-1.2-4.2-1.8c-1.2-.3-2.5-.3-3.7 0-.8.2-1.6.7-2.2 1.2-.4.4-.6.7-.6.7.1-.3.3-.5.5-.8.6-.6 1.4-1.1 2.2-1.3 1.2-.4 2.5-.4 3.8-.1 1.5.4 2.9 1 4.3 1.8 1.3.8 2.7 1.5 4.1 2.1 1.2.5 2.4.7 3.7.6 1.1 0 2.2-.4 3.2-1.1M127.9 45.6c-.1.1-.2.1-.3.2-.3.2-.6.3-.9.4-2 .9-4.3 1.1-6.4.6-.3-.1-.7-.2-1-.3-.2-.1-.3-.1-.3-.1s.5.1 1.3.3c1.1.2 2.1.2 3.2.1s2.1-.3 3.1-.7c.8-.3 1.3-.5 1.3-.5" class="st4"/><path d="m117.5 217.9 5.5 52.8 3.9 79.4h21l.6-169.1-60.1 4.3L76 274l10.8 77.7h23l-5.4-73.8z" class="st1"/><path d="M117.5 217.9c-1.2 1.5-2.6 2.8-4.1 4-1.4 1.3-2.8 2.6-4.4 3.6 1.2-1.5 2.6-2.8 4.1-4 1.4-1.3 2.9-2.5 4.4-3.6M117.5 216.9c-.1-2.3-.1-4.5.1-6.8 0-2.3.1-4.5.4-6.8.3 2.3.3 4.5.1 6.8 0 2.3-.2 4.6-.6 6.8M124.4 197.2h.3l1-.1 4-.2 14.2-.6h.2v15.5l-.2.1-9.2 3.7h-.2l-8.2-2.8h-.1v-.1c-.6-4.6-1.1-8.5-1.4-11.2-.2-1.3-.3-2.3-.4-3.1s0-1.2 0-1.2c0 .2 0 .3.1.4 0 .2.1.5.1.8.1.8.3 1.8.5 3.1.4 2.7 1 6.5 1.7 11l-.1-.2 8.2 2.8h-.2l9.2-3.7-.2.2v-15.100000000000001l.2.2-14.1.4-4 .1zM94.1 197.4h1.2l3.6-.1 13-.3h.2v.2c-.1 4.4-.3 9.4-.5 14.8v.1l-.1.1-1.5 1-7.6 5-.1.1-.1-.1-8.6-5.4-.1-.1v-.1c.2-4.6.3-8.4.4-11.2.1-1.3.1-2.3.1-3.1.1-.2.1-.5.1-.9v4.2c0 2.7-.1 6.5-.2 11l-.1-.2 8.6 5.1h-.3l7.6-5 1.5-1-.1.2c.2-5.4.4-10.4.5-14.8l.2.2-12.8.1h-4.6zM142 221.3c-.9.1-1.9 0-2.8-.1-1.8-.1-4.2-.4-6.8-.7s-5.1-.7-6.8-1c-.9-.1-1.9-.3-2.8-.6.9 0 1.9.1 2.8.3l6.8.9 6.8.9c1-.1 1.9.1 2.8.3M141.5 280.1s-.1.3-.5.7c-.6.5-1.4.7-2.1.7-1.1 0-2.3-.5-3.1-1.2-1-.9-2-1.8-2.9-2.9q-2.4-2.85-4.2-6c-.5-.9-1-1.8-1.3-2.7.6.8 1.1 1.7 1.6 2.5 1.3 2 2.8 4 4.3 5.8.8 1 1.8 2 2.8 2.9.8.7 1.8 1.1 2.8 1.2.7 0 1.4-.1 2-.5.4-.2.6-.5.6-.5M100.1 282s0 .3-.3.7c-.4.6-.9 1-1.4 1.4-.9.5-1.9.8-2.9.8-1.2 0-2.4-.4-3.5-1.1-1.8-1.3-3.3-3-4.2-5-.4-.8-.8-1.6-1-2.5.5.7 1 1.5 1.4 2.3 1 1.9 2.4 3.5 4.1 4.7 1 .6 2.1 1 3.2 1.1.9 0 1.9-.2 2.7-.6.8-.5 1.4-1.1 1.9-1.8M101.4 274c-.5.4-1.1.8-1.7 1-1.5.6-3.1.9-4.7 1s-3.2-.1-4.8-.6c-.6-.2-1.3-.5-1.8-.9 2.1.7 4.3 1 6.5 1 2.3-.1 4.5-.6 6.5-1.5M169.7 87.8h-30.6s-4.2-2.4-6.2-2c-1.5.5-2.8 1.4-3.8 2.6l4.1 33.7 9.9-7.3L180 111c3.2 0 6.2-1.4 8.4-3.7 2.4-2.5 3.5-6 3.1-9.4l-6.8-36.2-14 .5-.6 9.2zM85.5 96.3c-3.3 2-5.9 5-7.4 8.6-1.8 4.3-14 25.7-20.4 36.8-2.3 4.1-1.7 9.2 1.5 12.6 3.9 4.1 10.4 5.2 16.1 3.3 2.6-.8 12.8-9.1 12.8-9.1z" class="st4"/><path d="m90.8 172.7-7-60.3 1.7-16.1 17.9-7.6 23.1-1.5 22 2.4-5.2 61.9 5.7 34.9-61.7 2.7z" class="st4"/><path d="M90.8 172.4c-.1 0-1.8-13.4-3.8-30s-3.4-30-3.2-30.1 1.8 13.4 3.8 30 3.4 30.1 3.2 30.1M148 103.1v.6c0 .4-.1.9-.1 1.6q-.15 2.1-.6 5.7c-.5 4.9-1.1 11.5-1.9 18.8s-1.3 14-1.6 18.8c-.2 2.4-.3 4.3-.4 5.7 0 .6-.1 1.1-.1 1.5 0 .2 0 .4-.1.5v-2.1c0-1.4.1-3.3.2-5.7.3-4.8.8-11.5 1.5-18.8s1.4-14 2-18.8c.3-2.4.6-4.3.8-5.7.1-.6.2-1.1.2-1.5 0-.2 0-.4.1-.6M137.4 163.2c-.3.4-.6.8-1 1.2-.4.5-.8.9-1.2 1.3-.5.5-1.1 1.1-1.8 1.6-.7.6-1.5 1.2-2.3 1.8-.9.6-1.9 1.2-2.8 1.8-4.5 2.5-9.5 4-14.6 4.4-1.2 0-2.3.1-3.3.1s-1.9-.1-2.9-.2c-.8-.1-1.6-.2-2.4-.4-.6-.1-1.2-.2-1.8-.4-.5-.1-1-.3-1.5-.5 0-.1 2.1.5 5.6.9 1 .1 1.9.1 2.9.1s2.1-.1 3.3-.1c5-.4 9.9-1.9 14.4-4.3 1-.6 2-1.1 2.8-1.7s1.6-1.1 2.3-1.7c2.8-2.3 4.2-4 4.3-3.9" class="st1"/><path d="M104.8 174.5c-3-.9-3.2-3.7-2-4.9s3-1.4 4.7-1.1c1.6.4 3.3.6 5 .7 2.7-.2 5-2.1 6.9-4.1s3.7-4.2 6.2-5.3 6-.7 7.3 1.7c.8 1.6.7 3.5-.3 5-.9 1.5-2.2 2.7-3.7 3.6-7 4.7-15.7 6.3-24.1 4.4" class="st6"/><path d="M86.4 134.5c-.5.8-5.8 7.9-5.8 7.9-.1.7-5.2 7.2-5.2 7.2s4.5-2.5 7.9-4.3c1.5-.9 2.8-1.9 4.1-2.9 0 0-.8-4.9-1.1-6.7-.8-4.1-1.3-13.4-1.3-13.4" style="opacity:.2"/><path d="M141.3 89c1.6.6 3.1 1.7 4 3.2 1.1 1.4 1.7 3.1 1.8 4.8-1-3.2-3-6-5.8-8M86.4 134.5q-.6 1.35-1.5 2.4c-1 1.5-2.4 3.5-3.9 5.6-3.1 4.4-5.8 7.9-6 7.6l1.6-2.3 4-5.6c1.6-2.2 3-4.2 4.1-5.6.4-.6 1-1.4 1.7-2.1" class="st1"/></g><path d="M213.8 347.4c.1-.2.2-.3.4-.5l1.2-1.2c1-1 2.4-2.3 3.9-3.8v.2c-1.6-1.4-3-2.8-4-3.7l-1.2-1.1c-.2-.1-.3-.3-.4-.4.2.1.3.2.5.4l1.2 1.1c1 .9 2.5 2.2 4 3.7l.1.1-.1.1c-1.6 1.5-3 2.8-4 3.7l-1.2 1.1s-.2.1-.4.3zM201.8 336.8c-.1.2-.2.3-.4.5l-1.2 1.2c-1 1-2.4 2.3-3.9 3.8v-.3c1.6 1.4 3 2.8 4 3.7l1.2 1.1c.2.1.3.3.4.4-.2-.1-.3-.2-.5-.4-.3-.3-.8-.7-1.2-1.1-1-.9-2.5-2.2-4-3.7l-.1-.1.1-.1c1.6-1.5 3-2.8 4-3.7l1.2-1.1zM204.9 349.8c-.1 0 1.2-3.6 2.8-7.9s3-7.8 3.1-7.8-1.2 3.6-2.8 7.9c-1.7 4.4-3.1 7.9-3.1 7.8z" class="st5"/></svg>