<svg xmlns="http://www.w3.org/2000/svg" width="64" height="64" fill="none"><g stroke="#4770FF" stroke-linecap="round" stroke-linejoin="round" stroke-width="2" clip-path="url('#clip0_17_2094')"><path d="M10.667 13.333a2.666 2.666 0 0 1 2.667-2.667h37.333a2.667 2.667 0 0 1 2.667 2.667v5.333a2.667 2.667 0 0 1-2.667 2.667H13.334a2.667 2.667 0 0 1-2.667-2.666zM10.667 34.667A2.667 2.667 0 0 1 13.334 32H24a2.667 2.667 0 0 1 2.667 2.667v16A2.667 2.667 0 0 1 24 53.333H13.334a2.667 2.667 0 0 1-2.667-2.666zM37.333 32h16M37.333 42.667h16M37.333 53.334h16"/></g><defs><clipPath id="clip0_17_2094"><path fill="#fff" d="M0 0h64v64H0z"/></clipPath></defs></svg>